<svg xmlns="http://www.w3.org/2000/svg" enable-background="new 0 0 512 512" viewBox="0 0 512 512" id="shopping-cart"><path fill="#cd3232" d="M419.093,452h-16c-17.673,0-32-14.327-32-32v0c0-17.673,14.327-32,32-32h16c17.673,0,32,14.327,32,32v0    C451.093,437.673,436.766,452,419.093,452z"></path><path fill="#32283c" d="M435.093,388h-272c-4.418,0-8-3.582-8-8c0-44.112,35.888-80,80-80h56c4.418,0,8,3.582,8,8s-3.582,8-8,8h-56    c-32.58,0-59.553,24.473-63.502,56h263.502c4.418,0,8,3.582,8,8S439.512,388,435.093,388z"></path><path fill="#463c4b" d="M435.093,388h-368c-4.418,0-8-3.582-8-8c0-44.112,35.888-80,80-80h56c4.418,0,8,3.582,8,8s-3.582,8-8,8h-56    c-32.58,0-59.553,24.473-63.502,56h359.502c4.418,0,8,3.582,8,8S439.512,388,435.093,388z"></path><path fill="#32283c" d="M191.151,89.47l11.51,34.53h16.865L206.33,84.41C203.057,74.595,193.907,68,183.561,68h-36.468v16h36.468   C187.01,84,190.06,86.198,191.151,89.47z"></path><path fill="#32283c" d="M171.093,92h-24c-8.837,0-16-7.163-16-16v0c0-8.837,7.163-16,16-16h24c8.837,0,16,7.163,16,16v0    C187.093,84.837,179.93,92,171.093,92z"></path><path fill="#463c4b" d="M107.619,124.279L94.33,84.41C91.057,74.595,81.907,68,71.561,68H35.093v16h36.468   c3.449,0,6.499,2.198,7.59,5.47l15.786,47.359C96.2,130.634,101.105,125.503,107.619,124.279z"></path><path fill="#cd3232" d="M186.113,145.06l49.687,149.06C240.155,307.186,252.384,316,266.158,316h145.871    c13.774,0,26.002-8.814,30.358-21.881l49.687-149.06c3.453-10.361-4.258-21.06-15.179-21.06H201.292    C190.371,124,182.66,134.699,186.113,145.06z"></path><path fill="#ff4646" d="M95.446,145.06l49.687,149.06C149.489,307.186,161.717,316,175.491,316h145.871    c13.774,0,26.002-8.814,30.358-21.881l49.687-149.06c3.453-10.361-4.258-21.06-15.179-21.06H110.625    C99.704,124,91.993,134.699,95.446,145.06z"></path><path fill="#e6e6eb" d="M320.427 204h-16c-4.418 0-8-3.582-8-8v-32c0-4.418 3.582-8 8-8h16c4.418 0 8 3.582 8 8v32C328.427 200.418 324.845 204 320.427 204zM256.427 204h-16c-4.418 0-8-3.582-8-8v-32c0-4.418 3.582-8 8-8h16c4.418 0 8 3.582 8 8v32C264.427 200.418 260.845 204 256.427 204zM192.427 204h-16c-4.418 0-8-3.582-8-8v-32c0-4.418 3.582-8 8-8h16c4.418 0 8 3.582 8 8v32C200.427 200.418 196.845 204 192.427 204zM320.427 284h-16c-4.418 0-8-3.582-8-8v-32c0-4.418 3.582-8 8-8h16c4.418 0 8 3.582 8 8v32C328.427 280.418 324.845 284 320.427 284zM256.427 284h-16c-4.418 0-8-3.582-8-8v-32c0-4.418 3.582-8 8-8h16c4.418 0 8 3.582 8 8v32C264.427 280.418 260.845 284 256.427 284zM192.427 284h-16c-4.418 0-8-3.582-8-8v-32c0-4.418 3.582-8 8-8h16c4.418 0 8 3.582 8 8v32C200.427 280.418 196.845 284 192.427 284z"></path><path fill="#ff4646" d="M59.093,92h-24c-8.837,0-16-7.163-16-16v0c0-8.837,7.163-16,16-16h24c8.837,0,16,7.163,16,16v0    C75.093,84.837,67.93,92,59.093,92z"></path><g><circle cx="403.093" cy="420" r="32" fill="#ff4646"></circle></g><g><circle cx="403.093" cy="420" r="16" fill="#e6e6eb"></circle></g><g><path fill="#cd3232" d="M107.093,452h-16c-17.673,0-32-14.327-32-32v0c0-17.673,14.327-32,32-32h16c17.673,0,32,14.327,32,32v0    C139.093,437.673,124.766,452,107.093,452z"></path></g><g><circle cx="91.093" cy="420" r="32" fill="#ff4646"></circle></g><g><circle cx="91.093" cy="420" r="16" fill="#e6e6eb"></circle></g></svg>