<?xml version="1.0" ?><!-- Uploaded to: SVG Repo, www.svgrepo.com, Generator: SVG Repo Mixer Tools -->
<svg width="800px" height="800px" viewBox="0 0 128 128" data-name="Layer 4" id="Layer_4" xmlns="http://www.w3.org/2000/svg"><defs><style>.cls-1{fill:#231f20;}</style></defs><path class="cls-1" d="M80.79,28.43A21.2,21.2,0,0,1,102,49.61c0,8.12-3.52,20.9-20.26,35.67A120.67,120.67,0,0,1,64,98.11,120.67,120.67,0,0,1,46.29,85.28C29.55,70.51,26,57.73,26,49.61A21.18,21.18,0,0,1,58.61,31.76L64,35.22l5.39-3.46a21.12,21.12,0,0,1,11.4-3.33m0-10A31.08,31.08,0,0,0,64,23.34,31.18,31.18,0,0,0,16,49.61c0,36,48,60,48,60s48-24,48-60A31.18,31.18,0,0,0,80.79,18.43Z"/></svg>