<svg xmlns="http://www.w3.org/2000/svg" viewBox="0 0 216.03 216.03" id="finance"><path fill="#fdcf2c" d="M187.38,147c0,7.22-19.72,13.07-44,13.07S99.28,154.2,99.28,147,119,133.9,143.33,133.9,187.38,139.76,187.38,147Z"></path><path fill="#ff8100" d="M143.33,160.05c-24.33,0-44.05-5.85-44.05-13.07v10.3c0,7.22,19.72,13.07,44.05,13.07s44-5.85,44-13.07l-.16-9.24C185.39,154.76,166.45,160.05,143.33,160.05Z"></path><path fill="#fdcf2c" d="M177,135c0,7.22-19.72,13.08-44.05,13.08s-44-5.86-44-13.08,19.72-13.07,44-13.07S177,127.81,177,135Z"></path><path fill="#ff8100" d="M132.91,148.11c-24.32,0-44-5.86-44-13.08v10.31c0,7.22,19.72,13.07,44,13.07S177,152.56,177,145.34l-.16-9.24C175,142.82,156,148.11,132.91,148.11Z"></path><path fill="#fdcf2c" d="M180.08,120c0,7.22-19.72,13.07-44.05,13.07S92,127.23,92,120,111.7,106.93,136,106.93,180.08,112.79,180.08,120Z"></path><path fill="#ff8d00" d="M169.66,120c0,4.6-14.21,8.33-31.73,8.33s-31.74-3.73-31.74-8.33,14.21-8.33,31.74-8.33S169.66,115.41,169.66,120Z"></path><path fill="#ff8100" d="M136,133.08c-24.33,0-44-5.85-44-13.07v10.3c0,7.22,19.72,13.07,44.05,13.07s44.05-5.85,44.05-13.07l-.16-9.24C178.1,127.79,159.15,133.08,136,133.08Z"></path><path fill="#6280ff" d="M155.29,47.06l-3.19,9.79-.24.73-.88,2.7H126.83L126,57.81l-.23-.64L122.2,47.06C133.19,50.86,142.24,42.55,155.29,47.06Z"></path><path fill="#5255cf" d="M151.86,57.58l-.88,2.7H126.83L126,57.81C132.36,57.7,143.08,57.55,151.86,57.58Z"></path><path fill="#6280ff" d="M172.31,112.89A14.38,14.38,0,0,1,158.58,123H117.14a13.32,13.32,0,0,1-12.84-9.78,41.75,41.75,0,0,1-1.49-10.11c0-.32,0-.65,0-1s0-.77,0-1.15a41.49,41.49,0,0,1,15.9-31.21l4.56-3.61h31.92l8.6,8.22A27.49,27.49,0,0,1,168.36,80a40.42,40.42,0,0,1,3.95,32.9Z"></path><path fill="#fd3f7f" d="M157.49,62.7v1a2.44,2.44,0,0,1-2.3,2.42H123a2.43,2.43,0,0,1-2.42-2.42v-1A2.43,2.43,0,0,1,123,60.28h32.09A2.43,2.43,0,0,1,157.49,62.7Z"></path><path fill="#5255cf" d="M172.31,112.89A14.38,14.38,0,0,1,158.58,123H117.14a13.31,13.31,0,0,1-12.84-9.79,41.74,41.74,0,0,1-1.49-10.1c6.85,6.54,14.93,15.08,33.82,15.35,23.45.32,33.56-10.67,35.37-30.6A40.4,40.4,0,0,1,172.31,112.89Z"></path><circle cx="69.25" cy="129.14" r="40.6" fill="#ffaf15" transform="rotate(-76.72 69.25 129.136)"></circle><circle cx="72.48" cy="129.14" r="40.6" fill="#ffd715" transform="rotate(-45 72.477 129.129)"></circle><circle cx="72.48" cy="129.14" r="34.46" fill="#ffcc01" transform="rotate(-45 72.477 129.129)"></circle><path fill="#fcbd11" d="M90.5,99.73a34.46,34.46,0,0,1-47.06,47.93A34.46,34.46,0,1,0,90.5,99.73Z"></path><path fill="#ffdb53" d="M44.05,132.29a30.42,30.42,0,0,1,54.53-18.54,30.42,30.42,0,1,0-50.48,33.7A30.28,30.28,0,0,1,44.05,132.29Z"></path><path fill="#cf3731" d="M83.59,144.28a13.93,13.93,0,0,1-6.51,4.66l.18,6.17-7.93.22-.16-5.94a12.21,12.21,0,0,1-7.29-3.79,11.9,11.9,0,0,1-2.8-7.65l10-.28c.25,2.79,1.44,4.15,3.59,4.09s3.33-1.25,3.26-3.57c0-1.57-.94-2.83-2.69-3.8a19.09,19.09,0,0,0-2.68-1.19l-3.08-1.15a23.22,23.22,0,0,1-3.08-1.44,12.43,12.43,0,0,1-2.7-2.05A10.51,10.51,0,0,1,59,121.25Q58.69,112,68,109.1l-.16-5.94,7.92-.22.17,5.94q8.36,1.7,8.49,10.66v.28l-9.11.26c-.22-2.47-1.34-3.67-3.35-3.62s-3.15,1.19-3.09,3.39q.06,2.34,3.07,3.91a19.47,19.47,0,0,0,2.64,1.11l2.41.82a14.4,14.4,0,0,1,6.29,4.11A10.65,10.65,0,0,1,86,136.74,11.55,11.55,0,0,1,83.59,144.28Z"></path><path fill="#ff0" d="M147.77,106a11.73,11.73,0,0,1-5.44,3.89l.14,5.16-6.62.19-.14-5a10.22,10.22,0,0,1-6.09-3.17,10,10,0,0,1-2.34-6.39l8.4-.23q.31,3.49,3,3.42c1.87-.05,2.78-1.05,2.73-3a3.73,3.73,0,0,0-2.25-3.18,15.76,15.76,0,0,0-2.24-1l-2.57-1a19.91,19.91,0,0,1-2.58-1.2,10.79,10.79,0,0,1-2.26-1.71,8.83,8.83,0,0,1-2.33-6.11Q127,79,134.78,76.64l-.14-5,6.62-.19.14,5q7,1.41,7.09,8.9v.24l-7.61.21c-.19-2.06-1.12-3.07-2.8-3s-2.63,1-2.58,2.83c0,1.3.89,2.39,2.56,3.27a17.89,17.89,0,0,0,2.21.92l2,.69a12.1,12.1,0,0,1,5.26,3.43,9,9,0,0,1,2.23,5.8A9.74,9.74,0,0,1,147.77,106Z"></path><path fill="#57a9ff" d="M87.06,82.57a9.64,9.64,0,0,0-4.56-8.25,10.18,10.18,0,0,0,8.17-4.7,10.19,10.19,0,0,0,4.57,8.25A9.65,9.65,0,0,0,87.06,82.57Z"></path><path fill="#43c576" d="M50.56 88.53a6.64 6.64 0 00-6.07-2.35 7.07 7.07 0 002.25-6.12 7 7 0 006.08 2.36A6.65 6.65 0 0050.56 88.53zM179.1 108.14A6.63 6.63 0 00177 102a7.06 7.06 0 006.14-2.19 7 7 0 002.09 6.17A6.66 6.66 0 00179.1 108.14z"></path></svg>