<svg xmlns="http://www.w3.org/2000/svg" viewBox="0 0 512 512" id="hospital"><defs><linearGradient id="a" x1="146.22" x2="366.15" y1="313.63" y2="313.63" gradientUnits="userSpaceOnUse"><stop offset="0" stop-color="#0092ff"></stop><stop offset=".32" stop-color="#00a2ff"></stop><stop offset=".96" stop-color="#0cf"></stop><stop offset="1" stop-color="#00cfff"></stop></linearGradient><linearGradient id="b" x1="178.64" x2="334.92" y1="99.22" y2="99.22" gradientUnits="userSpaceOnUse"><stop offset="0" stop-color="#e84d00"></stop><stop offset=".36" stop-color="#d43917"></stop><stop offset=".72" stop-color="#c62c27"></stop><stop offset="1" stop-color="#c1272d"></stop></linearGradient></defs><path fill="#9ba1aa" d="M.65 197.3H146.2v314.74H.65z"></path><path fill="#373e49" d="M.65 197.3H146.2v314.74H.65z"></path><path fill="#fff" d="M33.48 235.68h30.79v30.79H33.48zM83 235.68h30.79v30.79H83zM33.1 284.03h30.79v30.79H33.1zM83.38 284.03h30.79v30.79H83.38zM33.1 333.54h30.79v30.79H33.1zM83.38 333.54h30.79v30.79H83.38zM33.1 380.78h30.79v30.79H33.1zM83.38 380.78h30.79v30.79H83.38zM33.1 430.3h30.79v30.79H33.1zM83.38 430.3h30.79v30.79H83.38z"></path><path fill="#9ba1aa" d="M365.8 197.3h145.55v314.74H365.8z"></path><path fill="#373e49" d="M365.8 197.3h145.55v314.74H365.8z"></path><path fill="url(#a)" d="M146.22 115.05h219.92v397.17H146.22z"></path><path fill="#fff" d="M398.63 235.68h30.79v30.79h-30.79zM448.14 235.68h30.79v30.79h-30.79zM398.24 284.03h30.79v30.79h-30.79zM448.53 284.03h30.79v30.79h-30.79zM398.24 333.54h30.79v30.79h-30.79zM448.53 333.54h30.79v30.79h-30.79zM398.24 380.78h30.79v30.79h-30.79zM448.53 380.78h30.79v30.79h-30.79zM398.24 430.3h30.79v30.79h-30.79zM448.53 430.3h30.79v30.79h-30.79zM179.51 235.1h30.79v30.79h-30.79zM300.19 235.1h30.79v30.79h-30.79zM179.12 283.45h30.79v30.79h-30.79zM300.58 283.45h30.79v30.79h-30.79zM179.12 332.96h30.79v30.79h-30.79zM300.58 332.96h30.79v30.79h-30.79zM239.66 234.84h30.79v30.79h-30.79zM240.05 283.19h30.79v30.79h-30.79zM240.05 332.7h30.79v30.79h-30.79zM209.92 384.79h93.39v127.55h-93.39z"></path><path fill="url(#b)" d="M334.86 96.14c1.69 46.1-36.6 84-82.95 81.21-39-2.38-70.4-33.79-73.09-72.73a78.14 78.14 0 1 1 156-8.48Z"></path><path fill="#fff" d="M204.51 119.36h32.12v32.12h40.29v-32.12h32.12V79.07h-32.12V46.95h-40.29v32.12h-32.12v40.29z"></path></svg>