<?xml version="1.0" encoding="iso-8859-1"?>
<!-- Uploaded to: SVG Repo, www.svgrepo.com, Generator: SVG Repo Mixer Tools -->
<!DOCTYPE svg PUBLIC "-//W3C//DTD SVG 1.1//EN" "http://www.w3.org/Graphics/SVG/1.1/DTD/svg11.dtd">
<svg fill="#000000" version="1.1" id="Capa_1" xmlns="http://www.w3.org/2000/svg" xmlns:xlink="http://www.w3.org/1999/xlink" 
	 width="800px" height="800px" viewBox="0 0 148.077 148.077"
	 xml:space="preserve">
<g>
	<g>
		<path d="M92.821,120.343c-4.523,0-8.208,3.683-8.208,8.208c0,4.53,3.685,8.208,8.208,8.208c4.544,0,8.219-3.684,8.219-8.208
			C101.04,124.026,97.365,120.343,92.821,120.343z M92.821,132.441c-2.138,0-3.879-1.745-3.879-3.89
			c0-2.146,1.745-3.886,3.879-3.886c2.152,0,3.896,1.751,3.896,3.886C96.717,130.696,94.974,132.441,92.821,132.441z"/>
		<path d="M133.369,120.343c-4.529,0-8.208,3.683-8.208,8.208c0,4.53,3.679,8.208,8.208,8.208c4.53,0,8.219-3.684,8.219-8.208
			C141.588,124.026,137.899,120.343,133.369,120.343z M133.369,132.441c-2.14,0-3.885-1.745-3.885-3.89
			c0-2.146,1.751-3.886,3.885-3.886c2.145,0,3.896,1.751,3.896,3.886C137.272,130.696,135.514,132.441,133.369,132.441z"/>
		<circle cx="40.953" cy="20.399" r="13.425"/>
		<path d="M136.671,114.657c3.576,0,6.504-2.928,6.504-6.51V93.029V91.1v-1.521l0.815-0.164v-5.144c0-4.039-3.289-7.321-7.325-7.321
			h-10.243c0-0.104,0.027-0.197,0.027-0.301v-3.248c0-2.474-1.998-4.479-4.479-4.479h-12.923c-2.475,0-4.478,2.005-4.478,4.479
			v3.248c0,0.104,0.023,0.197,0.027,0.301H94.364c-4.049,0-7.332,3.282-7.332,7.321v5.144l0.821,0.164V91.1v1.929v15.118
			c0,3.582,2.929,6.51,6.511,6.51h-9.98l-4.539-36.975l-7.604-6.04c0.69-2.769-0.843-5.623-3.598-6.479L52.53,60.17L41.046,43.146
			c0-2.728-1.258-5.204-3.317-6.808c-1.042-1.48-2.667-2.539-4.6-2.738c-2.376-0.26-4.59,0.845-5.918,2.665
			c-1.786,1.362-3.053,3.404-3.357,5.805l-4.32,34.605c-0.273,2.178,0.32,4.257,1.481,5.948l-6.64,27.518L1.015,131.125
			c-1.925,3.029-1.029,7.035,1.992,8.961c1.076,0.685,2.279,1.013,3.472,1.013c2.148,0,4.249-1.057,5.486-3.004l13.926-21.889
			c0.38-0.597,0.665-1.264,0.835-1.959l4.358-18.085l10.713,14.978l5.951,24.979c0.712,2.981,3.374,4.984,6.304,4.984
			c0.498,0,1.001-0.061,1.513-0.175c3.485-0.826,5.636-4.328,4.802-7.814l-6.238-26.21c-0.193-0.821-0.542-1.591-1.034-2.276
			L36.127,80.912c0.265-0.657,0.475-1.347,0.572-2.08l2.398-19.217l5.519,8.189c0.69,1.023,1.711,1.775,2.887,2.14l17.935,5.553
			c0.539,0.168,1.071,0.25,1.597,0.25c0.904,0,1.749-0.29,2.523-0.699l6.514,5.082l4.227,36.942
			c0.118,1.088,1.048,1.914,2.146,1.914h62.137c0.815,0,1.572-0.471,1.932-1.204l1.564-3.124H136.671z M114.389,97.699
			c-3.302-1.116-5.546-2.647-5.546-5.636c0-2.703,1.91-4.825,5.205-5.478v-2.922h3.017v2.708c2.061,0.094,3.451,0.521,4.463,1.013
			l-0.892,3.481c-0.803-0.345-2.217-1.046-4.431-1.046c-1.999,0-2.65,0.854-2.65,1.724c0,1.013,1.078,1.658,3.701,2.644
			c3.661,1.297,5.131,2.987,5.131,5.756c0,2.736-1.938,5.077-5.481,5.691v3.14h-3.017v-2.922c-2.058-0.092-4.065-0.646-5.229-1.323
			l0.925-3.601c1.279,0.706,3.106,1.351,5.104,1.351c1.751,0,2.946-0.678,2.946-1.904C117.643,99.205,116.658,98.465,114.389,97.699
			z M107.016,73.401c0-1.122,0.908-2.036,2.036-2.036h12.925c1.135,0,2.041,0.914,2.041,2.036v3.248
			c0,0.104-0.048,0.197-0.065,0.301h-16.88c-0.013-0.104-0.061-0.197-0.061-0.301v-3.248H107.016z"/>
	</g>
</g>
</svg>