<svg xmlns="http://www.w3.org/2000/svg" enable-background="new 0 0 68 68" viewBox="0 0 68 68" id="satellite-dish"><rect width="5.649" height="9.626" x="19.334" y="17.373" fill="#435e88" transform="rotate(-45 22.158 22.186)"></rect><path fill="#435e88" d="M10.0662518,6.3929138c0.7667828,0.7667828,0.961627,1.8958559,0.5644522,2.8368921l3.0946989,3.0946989      c0.3835611,0.3835621,0.3833914,1.0106354,0,1.3940268c-0.3903685,0.3903685-1.0104656,0.3835621-1.3940277,0      l-3.094698-3.0946989c-0.9410362,0.3971758-2.0701098,0.2159452-2.8436995-0.5576448      C5.3821721,9.0553827,5.3823423,7.4106965,6.3999548,6.393084C7.4107604,5.3822784,9.0554466,5.3821082,10.0662518,6.3929138z"></path><rect width="10.104" height="5.093" x="18.683" y="41.722" fill="#435e88" transform="rotate(-45 23.735 44.269)"></rect><rect width="10.104" height="5.093" x="39.189" y="21.216" fill="#435e88" transform="rotate(135 44.24 23.763)"></rect><path fill="#c175ff" d="M17.6008377 41.557209l8.838253 8.838253c1.0873814 1.0873795 1.0873814 2.8578224.0001698 3.945034L15.5657835 65.213974c-1.0873823 1.0873795-2.8508463 1.0804062-3.9382277-.0069809l-8.838253-8.8382492c-1.0870414-1.0870438-1.0872116-2.8437004.0001702-3.9310799l10.8734779-10.8734779C14.7501621 40.4769745 16.5137959 40.4701653 17.6008377 41.557209zM39.3421478 51.3426208c3.3336945 2.9809341 8.4501686 2.8803596 11.651577-.3210487 3.2014122-3.2014122 3.3019867-8.3178864.3210526-11.6515808L39.3421478 51.3426208z"></path><path fill="#b244f1" d="M51.3154602,39.3756371c2.9834061,3.3319168,2.8787537,8.4409065-0.3205986,11.6402626     c-0.3903694,0.3903656-0.8013268,0.7318954-1.2405357,1.0315628c2.1608124-3.178421,1.9166183-7.4791107-0.7041588-10.4065323     L51.3154602,39.3756371z"></path><path fill="#c175ff" d="M22.0627327,3.9160073c3.7429848,5.0083714,3.3322277,12.1358042-1.2195339,16.6875648     c-4.5453949,4.545393-11.6728258,4.9561501-16.6811981,1.2131653c-0.7891951-0.5806313-0.9000039-1.7218361-0.2021945-2.4196453     l15.68328-15.68328C20.3408966,3.0160034,21.4821014,3.1268122,22.0627327,3.9160073z"></path><path fill="#b244f1" d="M22.0618267,3.9186521c3.7428722,5.0113158,3.3317432,12.1277962-1.219944,16.6794853     c-0.4808979,0.4808979-0.9895344,0.920105-1.5264187,1.3031559c3.2829056-4.5094872,3.262146-10.6781235-0.0833836-15.152895     c-0.5785751-0.7875433-1.7216015-0.8990045-2.4186153-0.2019911l2.8297443-2.8297451     C20.3402233,3.0196478,21.4834213,3.1309385,22.0618267,3.9186521z"></path><path fill="#e5e8ef" d="M33.3047409,16.1373177l18.5545807,18.5545807c1.2684402,1.2684402,1.2684402,3.3315735-0.0001717,4.6001854     L39.2640686,51.8871651c-1.2684402,1.2684402-3.3315735,1.2684402-4.6000137,0L16.1094742,33.3325844     c-1.2687826-1.2687798-1.2616348-3.3247662,0.0068073-4.5932083l12.5950794-12.5950813     C29.9799728,14.8756828,32.0359573,14.868536,33.3047409,16.1373177z"></path><path fill="#cdd4df" d="M33.3047409,16.1373177l18.5545807,18.5545807c1.2684402,1.2684402,1.2684402,3.3315735-0.0001717,4.6001854     L39.2640686,51.8871651c-1.2684402,1.2684402-3.3315735,1.2684402-4.6000137,0l-5.9526939-35.7428703     C29.9799728,14.8756828,32.0359573,14.868536,33.3047409,16.1373177z"></path><circle cx="33.988" cy="34.016" r="7.557" fill="#5cbeff"></circle><path fill="#ffd80c" d="M20.3473701,44.3037415l-1.3940258-1.3940277l-4.1820812,4.1820793l-3.3179607-3.3179588     l-1.3940277,1.3940239l3.3179617,3.3179626l-3.6593208,3.6593208L6.3999548,48.827179l-1.3940272,1.3940277l3.3179612,3.3179626     L4.141808,57.7212486l1.3940268,1.3940277l4.1820807-4.1820793l3.352335,3.3523331l-4.1820803,4.1820793l1.3940268,1.3940277     l4.1820803-4.1820793l3.3179607,3.3179588l1.3940277-1.3940239l-3.3179617-3.3179626l3.6593218-3.6593208l3.3179607,3.3179626     l1.3940258-1.3940277l-3.3179607-3.3179626l4.1820812-4.1820793l-1.3940277-1.3940277l-4.1820793,4.1820831l-3.3523369-3.3523369     L20.3473701,44.3037415z M18.1235981,53.2321815l-3.6593208,3.6593208l-3.352335-3.3523331l3.6593208-3.6593208     L18.1235981,53.2321815z"></path><path fill="#c175ff" d="M56.3722115,2.785835l8.838253,8.838253c1.0873795,1.0873814,1.0873795,2.8578234,0.0001678,3.945035     l-10.8734779,10.873477c-1.0873795,1.0873814-2.8508453,1.0804043-3.9382248-0.0069771l-8.838253-8.838253     c-1.0870438-1.0870399-1.0872116-2.8436985,0.0001678-3.9310808l10.8734779-10.873477     C53.521534,1.7056004,55.2851677,1.6987936,56.3722115,2.785835z"></path><path fill="#ffd80c" d="M59.1187439,5.5323677l-1.3940277-1.3940272l-4.1820793,4.1820807l-3.3179626-3.3179607     l-1.3940277,1.3940268l3.3179626,3.3179607l-3.6593208,3.6593208l-3.3179626-3.3179607l-1.3940239,1.3940268l3.3179588,3.3179607     l-4.1820793,4.1820812l1.3940277,1.3940258l4.1820793-4.1820793l3.3523331,3.352335l-4.1820793,4.1820793l1.3940277,1.3940277     l4.1820793-4.1820812l3.3179626,3.3179607l1.3940277-1.3940258l-3.3179626-3.3179607l3.6593208-3.6593208l3.3179626,3.3179607     l1.3940239-1.3940277l-3.3179588-3.3179598l4.1820793-4.1820812L62.471077,8.8847027l-4.1820793,4.1820803l-3.3523369-3.352335     L59.1187439,5.5323677z M56.8949699,14.4608107l-3.6593208,3.6593199l-3.3523331-3.352335l3.6593208-3.6593208     L56.8949699,14.4608107z"></path><g><path fill="#079cff" d="M39.3338394,28.6764126c2.9483528,2.9483528,2.9483528,7.7301121,0,10.6784649     c-1.3242569,1.3242569-3.0109749,2.0491791-4.739727,2.1885452l-1.7144547-14.9995708     C35.1585655,26.2021523,37.5705452,26.9131184,39.3338394,28.6764126z"></path></g></svg>