<?xml version="1.0" encoding="iso-8859-1"?>
<!-- Uploaded to: SVG Repo, www.svgrepo.com, Generator: SVG Repo Mixer Tools -->
<svg fill="#000000" height="800px" width="800px" version="1.1" id="Layer_1" xmlns="http://www.w3.org/2000/svg" xmlns:xlink="http://www.w3.org/1999/xlink" 
	 viewBox="0 0 512 512" xml:space="preserve">
<g>
	<g>
		<g>
			<path d="M501.333,106.666h-37.741c3.642-6.282,5.74-13.566,5.74-21.334c0-23.525-19.139-42.663-42.665-42.663
				c-23.526,0-42.666,19.139-42.666,42.666c0,7.769,2.097,15.052,5.74,21.332H122.257c3.644-6.282,5.741-13.566,5.741-21.334
				c0-23.525-19.14-42.663-42.668-42.663c-23.525,0-42.665,19.139-42.665,42.666c0,7.769,2.097,15.052,5.74,21.332H10.667
				C4.775,106.666,0,111.442,0,117.333v234.668c0,4.246,2.518,8.09,6.414,9.782l245.332,106.665c1.356,0.59,2.805,0.884,4.253,0.884
				c1.447,0,2.897-0.294,4.253-0.884l245.334-106.664c3.894-1.693,6.414-5.535,6.414-9.782V117.333
				C512,111.443,507.224,106.666,501.333,106.666z M426.668,64.002c11.762,0,21.331,9.57,21.331,21.332
				c0,11.762-9.569,21.332-21.331,21.332c-11.762,0-21.332-9.57-21.332-21.334C405.336,73.571,414.906,64.002,426.668,64.002z
				 M85.332,64.002c11.762,0,21.332,9.57,21.332,21.332c0,11.762-9.57,21.332-21.332,21.332H85.33
				c-11.762,0-21.331-9.57-21.331-21.334C63.999,73.571,73.569,64.002,85.332,64.002z M490.667,345.007L255.999,447.034
				L21.333,345.007V127.999h469.333V345.007z"/>
			<path d="M152.629,367.204c-2.349,5.403,0.127,11.686,5.53,14.035l93.587,40.686c1.356,0.59,2.805,0.884,4.253,0.884
				c1.447,0,2.897-0.294,4.253-0.884l130.783-56.858c5.403-2.349,7.878-8.633,5.53-14.035s-8.629-7.876-14.035-5.53l-126.53,55.008
				l-89.334-38.836C161.264,359.326,154.979,361.801,152.629,367.204z"/>
			<path d="M289.59,287.834h47.745c2.813,0,4.217-1.204,4.217-3.614v-10.393c0-2.71-1.404-4.069-4.217-4.069h-37.353
				c-2.11,0-3.589-0.451-4.443-1.355c-0.854-0.904-1.28-2.409-1.28-4.518v-21.99h36.749c2.813,0,4.219-1.204,4.219-3.614v-10.545
				c0-2.71-1.406-4.065-4.219-4.065H294.26v-18.526c0-3.715,1.606-5.573,4.82-5.573h35.695c2.811,0,4.219-1.155,4.219-3.467v-10.542
				c0-2.71-1.408-4.067-4.219-4.067h-45.184c-10.745,0-16.115,5.523-16.115,16.57v73.65c0,5.825,1.328,9.966,3.99,12.427
				C280.126,286.603,284.17,287.834,289.59,287.834z"/>
			<path d="M75.097,278.572c3.917,4.166,8.558,7.079,13.932,8.735c5.373,1.658,12.075,2.485,20.109,2.485
				c8.231,0,15.111-0.853,20.635-2.558c5.521-1.709,10.292-4.644,14.307-8.813c4.017-4.164,6.929-9.889,8.735-17.17
				c1.807-7.279,2.713-16.391,2.713-27.334c0-9.238-0.629-17.07-1.884-23.497c-1.254-6.428-2.987-11.647-5.196-15.664
				c-2.209-4.017-5.27-7.155-9.188-9.414c-3.917-2.259-8.083-3.791-12.502-4.592c-4.416-0.805-9.889-1.206-16.415-1.206
				c-7.132,0-13.308,0.753-18.526,2.261c-5.222,1.504-10.042,4.164-14.459,7.982c-4.421,3.815-7.758,9.414-10.017,16.793
				c-2.259,7.38-3.388,16.543-3.388,27.487c0,10.946,0.876,20.057,2.634,27.338C68.345,268.683,71.181,274.403,75.097,278.572z
				 M88.351,210.796c2.009-5.576,4.669-9.287,7.982-11.146c3.313-1.857,7.782-2.788,13.405-2.788c6.225,0,10.97,0.906,14.231,2.714
				c3.265,1.807,5.725,5.396,7.383,10.77c1.655,5.369,2.484,13.329,2.484,23.871c0,8.131-0.527,14.783-1.582,19.956
				c-1.056,5.169-2.713,9.062-4.969,11.67c-2.26,2.611-4.745,4.368-7.457,5.274c-2.71,0.902-6.174,1.355-10.393,1.355
				c-4.217,0-7.707-0.478-10.467-1.43c-2.763-0.955-5.221-2.786-7.381-5.497c-2.158-2.713-3.741-6.627-4.743-11.749
				c-1.004-5.122-1.506-11.697-1.506-19.731C85.339,224.123,86.343,216.367,88.351,210.796z"/>
			<path d="M182.193,287.987h12.5c2.912,0,4.369-1.508,4.369-4.521v-37.503h10.243c10.443,0,18.676-0.902,24.701-2.71
				c13.454-4.017,20.181-14.008,20.181-29.974c0-14.557-5.071-23.898-15.213-28.015c-5.922-2.509-16.164-3.765-30.725-3.765h-13.404
				c-6.025,0-10.293,1.357-12.802,4.067c-2.511,2.713-3.766,7.181-3.766,13.407v84.492
				C178.276,286.478,179.582,287.987,182.193,287.987z M199.061,203.791c0-3.313,1.456-4.972,4.369-4.972h6.475
				c7.331,0,12.452,0.503,15.362,1.507c5.021,1.908,7.533,6.627,7.533,14.158c0,6.827-2.61,11.246-7.833,13.252
				c-3.313,1.204-8.234,1.808-14.761,1.808h-11.146V203.791z"/>
			<path d="M366.111,287.987h12.049c2.813,0,4.219-1.508,4.219-4.521c0-38.255-0.1-64.311-0.301-78.169
				c4.62,11.146,15.963,35.143,34.037,71.993c2.209,4.521,4.292,7.582,6.252,9.188c1.958,1.605,5.044,2.411,9.261,2.411h4.671
				c3.615,0,6.475-0.829,8.585-2.485c2.11-1.658,3.164-4.746,3.164-9.262v-90.671c0-3.413-1.356-5.121-4.067-5.121h-11.297
				c-3.011,0-4.517,1.857-4.517,5.573c0,40.965,0.153,66.018,0.451,75.156c-5.119-12.45-16.214-36.148-33.283-71.089
				c-1.807-3.715-3.541-6.326-5.197-7.831c-1.659-1.506-4.443-2.259-8.359-2.259h-5.723c-4.919,0-8.46,1.153-10.619,3.461
				c-2.158,2.312-3.237,5.876-3.237,10.694v88.412C362.197,286.478,363.503,287.987,366.111,287.987z"/>
			<path d="M134.716,347.78l-5.935-2.389c-5.461-2.201-11.678,0.446-13.878,5.911c-2.201,5.465,0.447,11.679,5.911,13.878
				l5.935,2.389c1.306,0.526,2.653,0.774,3.98,0.774c4.224,0,8.224-2.527,9.898-6.686
				C142.827,356.193,140.18,349.979,134.716,347.78z"/>
		</g>
	</g>
</g>
</svg>