<?xml version="1.0" encoding="iso-8859-1"?>
<!-- Uploaded to: SVG Repo, www.svgrepo.com, Generator: SVG Repo Mixer Tools -->
<svg fill="#000000" height="800px" width="800px" version="1.1" id="Layer_1" xmlns="http://www.w3.org/2000/svg" xmlns:xlink="http://www.w3.org/1999/xlink" 
	 viewBox="0 0 512 512" xml:space="preserve">
<g>
	<g>
		<g>
			<path d="M362.665,490.667l-80.574-0.001c8.779-8.429,17.921-17.006,27.379-25.874c74.931-70.255,159.861-149.882,159.859-251.461
				c0.002-56.982-22.188-110.554-62.482-150.848C366.554,22.19,312.983,0,256,0S145.443,22.19,105.151,62.483
				c-40.292,40.293-62.482,93.865-62.481,150.848c-0.004,101.578,84.927,181.207,159.86,251.461
				c9.458,8.868,18.601,17.444,27.378,25.874l-80.576-0.001c-5.89,0-10.667,4.777-10.667,10.667c0,5.891,4.776,10.667,10.667,10.667
				l106.647,0.001c0.006,0,0.013,0.001,0.021,0.001c0.006,0,0.013-0.001,0.021-0.001L362.665,512
				c5.889,0,10.667-4.776,10.667-10.667C373.332,495.442,368.554,490.667,362.665,490.667z M256,486.27
				c-12.251-12.075-25.252-24.264-38.88-37.042C145.349,381.937,63.999,305.669,64.003,213.331
				c-0.001-51.285,19.97-99.5,56.234-135.763C156.499,41.304,204.715,21.333,256,21.333s99.5,19.971,135.762,56.235
				c36.264,36.263,56.236,84.478,56.234,135.763c0.002,92.337-81.346,168.607-153.117,235.898
				C281.252,462.004,268.251,474.196,256,486.27z"/>
			<path d="M354.332,150.246c2.035,3.188,5.482,4.929,9.002,4.929c1.963,0,3.95-0.542,5.729-1.677
				c4.964-3.17,6.421-9.764,3.25-14.731c-0.785-1.231-1.591-2.453-2.415-3.66c-3.323-4.866-9.961-6.118-14.825-2.797
				c-4.864,3.32-6.116,9.957-2.796,14.822C352.978,148.16,353.663,149.199,354.332,150.246z"/>
			<path d="M382.734,269.669c0.5-1.126,0.787-2.318,0.879-3.521c6.94-16.814,10.454-34.562,10.454-52.818
				c0-14.572-2.282-28.984-6.783-42.836c-1.819-5.603-7.836-8.672-13.442-6.848c-5.602,1.82-8.667,7.838-6.848,13.44
				c3.808,11.719,5.74,23.914,5.74,36.244c0,8.529-0.912,16.925-2.715,25.132c-11.257-16.241-25.906-29.987-42.946-40.184
				c2.423-6.75,4.45-15.557,6.452-27.714c0.319-1.94,0.809-4.496,1.377-7.455c3.227-16.833,8.107-42.272,3.117-58.979
				C326.655,66.085,294.461,41.503,256,41.5c-37.108,0-68.379,22.891-80.739,58.675c-21.535,15.247-38.201,36.186-48.206,60.611
				c-2.234,5.452,0.377,11.681,5.828,13.914c1.323,0.542,2.691,0.799,4.038,0.799c4.201,0,8.185-2.498,9.875-6.626
				c5.903-14.412,14.546-27.389,25.414-38.301c0.867,11.529,3.119,23.32,4.885,32.536c0.567,2.959,1.058,5.516,1.377,7.456
				c2.002,12.156,4.029,20.961,6.452,27.712c-24.461,14.639-44.024,36.578-55.66,62.717c-1.229,2.762-1.229,5.914,0,8.675
				c22.263,50.014,72.01,82.328,126.734,82.326c0.002,0,0.002,0,0.004,0C310.727,351.996,360.473,319.68,382.734,269.669z
				 M194.421,110.237c8.735-29.238,32.331-47.401,61.577-47.401c29.25,0.002,52.846,18.165,61.58,47.401
				c3.498,11.708-1.137,35.872-3.627,48.854c-0.596,3.107-1.11,5.792-1.475,8.008c-4.933,29.959-7.314,31.474-20.527,39.878
				c-2.319,1.474-4.933,3.138-7.862,5.116c-9.381,5.356-18.829,8.071-28.09,8.071c-9.259-0.001-18.705-2.715-28.083-8.069
				c-2.927-1.978-5.541-3.641-7.859-5.115c-13.215-8.405-15.596-9.92-20.53-39.882c-0.365-2.218-0.879-4.901-1.476-8.01
				c-0.793-4.131-1.801-9.396-2.697-15.03c11.767-1.804,30.498-5.394,45.331-11.588l2.372,5.689
				c0.407,0.977,0.743,1.836,1.038,2.585c1.451,3.696,3.439,8.758,9.297,10.733c1.436,0.483,2.798,0.687,4.142,0.687
				c2.948,0,5.81-0.977,9.152-2.118c0.868-0.297,1.845-0.63,2.95-0.995c8.054-2.658,19.573-7.802,28.704-17.214
				c4.102-4.228,4-10.981-0.227-15.084c-4.229-4.102-10.981-4-15.084,0.228c-6.114,6.303-14.293,9.901-20.081,11.81
				c-0.204,0.067-0.404,0.133-0.601,0.199l-6.4-15.354c-1.221-2.925-3.677-5.156-6.704-6.09c-3.031-0.933-6.317-0.471-8.969,1.26
				c-10.675,6.962-32.385,11.627-47.093,13.98C193.088,117.954,193.421,113.585,194.421,110.237z M256,330.663
				c-44.705,0.001-85.486-25.486-105.206-65.33c10.113-20.417,26.05-37.515,45.655-49.094c3.363,3.018,7.336,5.679,12.156,8.743
				c2.281,1.451,4.865,3.094,7.667,4.995l0.654,0.41c12.768,7.373,25.914,11.11,39.07,11.111c0.002,0,0.002,0,0.002,0
				c13.156,0,26.304-3.739,39.075-11.114l0.654-0.41c2.802-1.901,5.388-3.546,7.67-4.997c4.817-3.065,8.789-5.724,12.15-8.739
				c19.606,11.58,35.543,28.677,45.656,49.094C341.488,305.177,300.707,330.663,256,330.663z"/>
			<path d="M138.614,201.792c0.13-1.283,0.275-2.564,0.445-3.839c0.776-5.84-3.329-11.203-9.169-11.979
				c-5.829-0.778-11.201,3.328-11.98,9.168c-0.189,1.424-0.359,2.899-0.522,4.512c-0.591,5.861,3.682,11.091,9.543,11.682
				c0.363,0.036,0.724,0.054,1.082,0.054C133.424,211.391,138.06,207.29,138.614,201.792z"/>
		</g>
	</g>
</g>
</svg>