<svg xmlns="http://www.w3.org/2000/svg" enable-background="new 0 0 73 73" viewBox="0 0 73 73" id="school-notebooks"><g><path fill="#e6f0f8" d="M46.75812,52.44106c0.1928,0.59566,0.45735,1.15443,0.76557,1.67957l-33.38898,3.8787         c-1.89921,0.22063-3.73465-1.12789-3.96868-3.14248c-0.23042-1.98362,1.22161-3.74554,3.14262-3.9687l33.38899-3.8787         c-0.15432,0.63586-0.2556,1.23725-0.3028,1.8132C46.25877,50.18865,46.39717,51.38013,46.75812,52.44106z"></path><path fill="#ff6161" d="M42.86292,8.40729l4.47589,38.5309c0.07453,0.64158-0.38572,1.22288-1.02736,1.29742          l-32.86697,3.81807c-1.31583,0.15285-2.26512,1.35164-2.11173,2.6721c0.07454,0.6417-0.38572,1.22288-1.02736,1.29742          c-0.64164,0.07454-1.22287-0.38566-1.29742-1.02736L4.53209,16.46505c-0.30247-2.6038,1.56735-4.96512,4.17109-5.26759          l32.86232-3.81752C42.20715,7.3054,42.78839,7.76571,42.86292,8.40729z"></path><path fill="#f04343" d="M13.59524,10.62914l-4.89206,0.5683c-2.60375,0.30247-4.47355,2.66378-4.17109,5.26753          l4.47589,38.53083c0.07455,0.64178,0.65576,1.1019,1.29742,1.02736c0.6416-0.07454,1.10191-0.65565,1.02736-1.29742          c-0.15339-1.32043,0.79589-2.51917,2.11174-2.67203l4.8967-0.56884L13.59524,10.62914z"></path><path fill="#bbcfef" d="M46.75812,52.44106c0.1928,0.59566,0.45735,1.15443,0.76557,1.67957l-33.02315,3.8362          c-0.94755,0.11007-1.85162-0.06056-2.59925-0.4396c-3.42402-1.68426-2.18629-6.21162,1.77319-6.67158l33.02315-3.8362          c-0.15432,0.63586-0.2556,1.23725-0.3028,1.8132L13.87827,52.6c-1.16331,0.13514-2.01713,1.05201-1.90161,2.04651          c0.11551,0.99438,1.15787,1.7005,2.32118,1.56536L46.75812,52.44106z"></path><path fill="#f04343" d="M47.13585,55.34507l-32.86471,3.8178c-2.60085,0.30214-4.96278-1.56795-5.2649-4.16879          c-0.30218-2.6013,1.56817-4.96303,4.16902-5.26517l32.86471-3.8178c0.64204-0.07458,1.22284,0.38532,1.29742,1.02736          c0.07458,0.64204-0.38532,1.22284-1.02736,1.29742l-32.8647,3.8178c-1.31904,0.15323-2.26752,1.35129-2.11429,2.67033          c0.15322,1.31904,1.35103,2.26731,2.67007,2.11408l32.86471-3.8178c0.64204-0.07458,1.22284,0.38532,1.29742,1.02736          C48.2378,54.68969,47.77789,55.27049,47.13585,55.34507z"></path><path fill="#ffca6c" d="M11.33947,10.89121l-2.63629,0.30625c-2.60374,0.30247-4.47356,2.6638-4.17109,5.26759          l4.47588,38.53078c0.07454,0.6417,0.65578,1.10189,1.29742,1.02736c0.64164-0.07454,1.1019-0.65572,1.02736-1.29742          c-0.15339-1.32046,0.7959-2.51925,2.11173-2.6721l2.64095-0.30679L11.33947,10.89121z"></path><path fill="#ffb63c" d="M16.64121,56.5314l-2.64012,0.30669c-1.31904,0.15323-2.51684-0.79504-2.67007-2.11408          c-0.15322-1.31903,0.79525-2.5171,2.11429-2.67033l2.64012-0.30669l-0.27005-2.32478l-2.64012,0.30669          c-2.60085,0.30214-4.47119,2.66387-4.16902,5.26517c0.30212,2.60084,2.66406,4.47093,5.2649,4.16879l2.64012-0.30669          L16.64121,56.5314z"></path><g><path fill="#fff" d="M39.80537,15.83415l0.90018,7.74918c0.06647,0.57226-0.34811,1.09583-0.92977,1.1634l-19.82327,2.30281        c-0.57226,0.06648-1.09583-0.34811-1.16231-0.92037l-0.90018-7.74918c-0.06757-0.58165,0.34702-1.10522,0.91928-1.1717        l19.82327-2.30281C39.21424,14.83791,39.73781,15.2525,39.80537,15.83415z"></path></g><g><path fill="#3d4449" d="M20.68362 19.88037l16.74023-1.94482c.22168-.01855.41797.13135.44385.35107.02539.21973-.13184.41846-.35107.44385L20.77639 20.6753C20.23835 20.72421 20.1676 19.94014 20.68362 19.88037zM21.09035 23.38575l6.35596-.73828c.53396-.05468.6123.73475.09277.79492l-6.35596.73828C20.64508 24.22958 20.57434 23.44551 21.09035 23.38575z"></path></g><g><path fill="#a46ef2" d="M28.25708,52.63154l1.18653,10.21431c0.05671,0.4882-0.45021,0.84503-0.89066,0.62693l-3.11255-1.5412       c-0.21914-0.10851-0.48161-0.07802-0.67004,0.07784L22.094,64.22311c-0.37873,0.31325-0.95395,0.08214-1.01066-0.40607       l-1.18653-10.21431L28.25708,52.63154z"></path></g><g><path fill="#e6f0f8" d="M62.95164,61.50441c0.01882,0.4342,0.09246,0.85699,0.20155,1.26536l-23.057-3.58081         c-0.68223-0.10595-1.26382-0.49531-1.6246-0.98876c-1.29824-1.77546,0.20189-4.26133,2.38724-3.92194l23.057,3.58081         c-0.22087,0.3969-0.39986,0.78053-0.53797,1.15715C63.03416,59.90501,62.90638,60.7278,62.95164,61.50441z"></path><path fill="#49e4a3" d="M68.49028,31.3221l-4.13226,26.60789c-0.06881,0.44305-0.48426,0.74685-0.92736,0.67804          l-22.69653-3.52483c-0.90866-0.14112-1.76553,0.48537-1.90715,1.39722c-0.06882,0.44313-0.48427,0.74685-0.92736,0.67804          s-0.74685-0.48423-0.67804-0.92736l4.13225-26.60782c0.27924-1.79808,1.96705-3.03212,3.76508-2.75288l22.69331,3.52433          C68.25533,30.46355,68.55908,30.87905,68.49028,31.3221z"></path><path fill="#39c988" d="M48.49718,27.39505l-3.37824-0.52465c-1.79804-0.27924-3.48583,0.95479-3.76507,2.75283          l-4.13225,26.60785c-0.06883,0.44318,0.23493,0.85854,0.67804,0.92736c0.44307,0.06881,0.85853-0.23486,0.92736-0.67804          c0.14161-0.91183,0.99847-1.5383,1.90714-1.39717l3.38145,0.52515L48.49718,27.39505z"></path><path fill="#bbcfef" d="M62.95164,61.50441c0.01882,0.4342,0.09246,0.85699,0.20155,1.26536L40.34882,59.2282          c-0.65434-0.10162-1.22766-0.38301-1.65777-0.77491c-1.97937-1.76023-0.31385-4.56043,2.42041-4.13579l22.80437,3.54157          c-0.22087,0.3969-0.39986,0.78053-0.53797,1.15715l-22.45454-3.48724c-0.80333-0.12476-1.54419,0.33076-1.65085,1.01752          c-0.10664,0.68668,0.46016,1.35193,1.26349,1.47669L62.95164,61.50441z"></path><path fill="#39c988" d="M62.66722,63.51727l-22.69496-3.52459c-1.79603-0.27893-3.03043-1.96703-2.7515-3.76307          c0.27898-1.79635,1.96721-3.03057,3.76325-2.75164l22.69496,3.52458c0.44337,0.06886,0.74689,0.48399,0.67804,0.92736          c-0.06886,0.44336-0.484,0.74689-0.92736,0.67804l-22.69496-3.52458c-0.91087-0.14146-1.76707,0.48469-1.90853,1.39557          s0.48455,1.7669,1.39543,1.90836l22.69496,3.52458c0.44336,0.06886,0.74689,0.48399,0.67803,0.92736          C63.52572,63.2826,63.11059,63.58613,62.66722,63.51727z"></path><path fill="#ffca6c" d="M46.93944,27.15314l-1.82051-0.28273c-1.79803-0.27924-3.48584,0.9548-3.76508,2.75288          L37.2216,56.23111c-0.06882,0.44313,0.23495,0.85854,0.67804,0.92736s0.85854-0.23491,0.92736-0.67804          c0.14161-0.91186,0.99849-1.53834,1.90715-1.39722l1.82372,0.28323L46.93944,27.15314z"></path><path fill="#ffb63c" d="M42.04474,58.67043l-1.82315-0.28314c-0.91087-0.14146-1.53689-0.99748-1.39543-1.90836          s0.99766-1.53703,1.90853-1.39557l1.82316,0.28314l0.24932-1.6054l-1.82315-0.28314          c-1.79604-0.27893-3.48427,0.95529-3.76325,2.75164c-0.27893,1.79604,0.95547,3.48415,2.7515,3.76307l1.82315,0.28314          L42.04474,58.67043z"></path><g><path fill="#fff" d="M65.07084,35.72566l-0.83106,5.35127c-0.06137,0.39518-0.4356,0.6688-0.83727,0.60642l-13.6891-2.12595        c-0.39518-0.06137-0.6688-0.43561-0.60743-0.83079l0.83106-5.35127c0.06238-0.40167,0.43661-0.67529,0.83179-0.61391        l13.6891,2.12595C64.8596,34.94976,65.13322,35.32399,65.07084,35.72566z"></path></g><g><path fill="#3d4449" d="M62.98489 37.36084l-11.56055-1.79541c-.52094-.08041-.40268-.86854.12305-.79004l11.56055 1.79541C63.63313 36.65187 63.50536 37.44557 62.98489 37.36084zM55.43752 38.66797l-4.38916-.68115c-.21826-.03418-.36768-.23877-.33398-.45703.03418-.21777.23975-.3623.45703-.33398l4.38916.68115C56.07823 37.95802 55.96797 38.74199 55.43752 38.66797z"></path></g><g><path fill="#ff6161" d="M50.53791,58.20972l-1.09544,7.05359c-0.05236,0.33714-0.45752,0.48211-0.71188,0.25472l-1.79744-1.60691       c-0.12655-0.11314-0.3078-0.14128-0.4627-0.07186l-2.20013,0.98607c-0.31134,0.13954-0.65345-0.12149-0.60109-0.45863       l1.09544-7.05359L50.53791,58.20972z"></path></g></g><g><path fill="#fff" d="M41.61756 50.29916c.36779-1.67804.61407-3.3783.53197-4.66537-.07811-1.22464-1.03677-.17976-1.55204 3.23243C40.13416 51.93452 40.95382 53.32745 41.61756 50.29916zM42.56287 43.35863c1.28279-3.5464.58529-4.20564-.22428-1.44353C41.83683 43.62702 41.99763 44.92131 42.56287 43.35863z"></path></g><g><path fill="#fff" d="M12.60419 41.65886c-.3222-2.86213-.84928-5.6939-1.67448-7.69254-.40718-.98619-.94013-.95337-1.08393.46215-.18156 1.78724.05734 3.7927.36568 5.50666C11.13263 45.0556 13.18565 46.82401 12.60419 41.65886zM10.35743 30.13179c.02988-1.55608-.04982-3.21248-.3438-4.63571-.2807-1.35893-.93338-.84956-.79154 2.46548C9.34993 30.94983 10.30394 32.91742 10.35743 30.13179z"></path></g><g><polygon fill="#f04343" points="41.469 29.136 38.691 46.767 35.239 47.166"></polygon></g></g></svg>