<svg xmlns="http://www.w3.org/2000/svg" enable-background="new 0 0 492 492" viewBox="0 0 492 492" id="microscope"><path fill="#c1cfe8" d="M331.06,266.61h65.12c4.96,0,9.47,2.03,12.74,5.3l0.02,0.02c3.27,3.27,5.3,7.78,5.3,12.74v13.37   c0,2.59-2.1,4.7-4.7,4.7h-91.85c-2.59,0-4.7-2.1-4.7-4.7v-13.37c0-4.96,2.03-9.47,5.3-12.74l0.02-0.02   C321.59,268.64,326.1,266.61,331.06,266.61z"></path><path fill="#393d48" d="M201.17,86.86l-22.45,22.45l0,0l-0.01-0.01l-0.01,0.01c-1.9,1.89-4.38,2.85-6.86,2.85   c-2.49,0-4.99-0.95-6.88-2.85l0,0l-15.87-15.87c-1.9-1.9-2.85-4.39-2.85-6.88c0-2.32,0.84-4.66,2.51-6.51   c0.1-0.13,0.21-0.25,0.33-0.37l22.45-22.45l0,0l0.01,0.01l0.01-0.01c1.9-1.89,4.38-2.85,6.86-2.85c2.49,0,4.99,0.95,6.88,2.85l0,0   l15.87,15.87l0,0l-0.01,0.01l0.01,0.01c1.9,1.9,2.84,4.38,2.84,6.86C204.02,82.47,203.07,84.97,201.17,86.86L201.17,86.86z"></path><path fill="#5c9cee" fill-rule="evenodd" d="M339.56,222.5l-25.19,25.19c-1.52,1.52-3.52,2.28-5.51,2.28c-1.99,0-3.99-0.76-5.51-2.28l-9.75-9.75   c-1.52-1.52-2.28-3.51-2.28-5.51c0-1.99,0.76-3.99,2.28-5.51l25.19-25.19l0,0l0.01,0.01l0.01-0.01c1.51-1.51,3.5-2.26,5.49-2.26   v-0.02c1.99,0,3.99,0.76,5.51,2.28l0,0l9.75,9.75c1.52,1.52,2.28,3.52,2.28,5.51C341.84,218.99,341.08,220.99,339.56,222.5z" clip-rule="evenodd"></path><path fill="#c1cfe8" d="M328.17,320.45c2.39,0.98,3.53,3.72,2.55,6.11c-9.46,23.04-25.62,42.63-46.05,56.33   c-19.85,13.31-43.71,21.07-69.37,21.07c-34.45,0-65.63-13.96-88.2-36.54c-22.57-22.57-36.54-53.76-36.54-88.2   c0-26.66,8.38-51.38,22.64-71.66c14.65-20.83,35.53-36.98,59.95-45.75c2.43-0.87,5.11,0.39,5.98,2.82   c5.26,14.7-12.36-14.56,7.85,34.16c0.99,2.39-0.14,5.13-2.53,6.13c-14.78,6.14-27.34,16.57-36.12,29.72   c-0.18,0.26-0.35,0.53-0.52,0.79c-8.18,12.58-12.94,27.62-12.94,43.79c0,22.21,9,42.32,23.56,56.87   c14.55,14.55,34.66,23.56,56.87,23.56c14.05,0,27.24-3.59,38.72-9.91c5.26-2.89,10.16-6.36,14.62-10.31   c5.64-5,10.57-10.78,14.62-17.17c1.39-2.19,4.29-2.84,6.47-1.45C305.55,325.06,312.18,311.48,328.17,320.45z"></path><path d="M371.9,147.43c2.59,0,4.7,2.1,4.7,4.7c0,2.59-2.1,4.7-4.7,4.7c-7.09,0-13.52-2.88-18.19-7.54l-0.01-0.01l-0.01-0.01   l-0.03-0.03c-4.65-4.67-7.51-11.09-7.51-18.16c0-7.09,2.88-13.52,7.54-18.19l0.01-0.01l0.01-0.01l0.03-0.03   c4.67-4.65,11.09-7.51,18.16-7.51c2.59,0,4.7,2.1,4.7,4.7c0,2.59-2.1,4.7-4.7,4.7c-4.53,0-8.62,1.82-11.56,4.77l-0.02,0.02   c-2.95,2.95-4.77,7.04-4.77,11.56c0,4.53,1.82,8.62,4.77,11.56l0.02,0.02C363.28,145.6,367.37,147.43,371.9,147.43z"></path><path fill="#c1cfe8" d="M307.43 83.4c-1.79-1.86-1.74-4.83.13-6.62 1.86-1.79 4.83-1.74 6.62.13l27.87 28.94c1.79 1.86 1.74 4.83-.13 6.62-1.86 1.79-4.83 1.74-6.62-.13L307.43 83.4zM410.68 117.55c-2.05 1.58-4.99 1.2-6.57-.84-1.58-2.05-1.2-4.99.84-6.57l20.44-15.85c2.05-1.58 4.99-1.2 6.57.84 1.58 2.05 1.2 4.99-.84 6.57L410.68 117.55zM386.29 168.71c-1.29-2.24-.51-5.1 1.72-6.38 2.24-1.29 5.1-.51 6.38 1.72l11.53 19.98c1.29 2.24.51 5.1-1.72 6.38-2.24 1.29-5.1.51-6.38-1.72L386.29 168.71z"></path><path fill="#5c9cee" fill-rule="evenodd" d="M167.21,107.55l32.2-32.2c2.9-2.9,6.73-4.36,10.55-4.36c3.82,0,7.64,1.45,10.55,4.36l92,92l0,0   c0.1,0.1,0.2,0.21,0.29,0.31c2.71,2.87,4.07,6.55,4.07,10.23c0,3.81-1.45,7.62-4.36,10.53l-0.01,0.01l0.01,0.01l0,0l-32.2,32.2l0,0   c-0.1,0.1-0.21,0.2-0.31,0.29c-2.86,2.71-6.55,4.07-10.23,4.07c-3.81,0-7.62-1.45-10.53-4.36l-0.01-0.01l-0.01,0.01l0,0   l-22.38-22.38c-1.61-1.61-1.8-4.1-0.59-5.92c1.41-2.36,2.51-4.91,3.25-7.57c0.73-2.64,1.12-5.46,1.12-8.41   c0-8.65-3.51-16.48-9.17-22.15c-5.67-5.67-13.5-9.17-22.15-9.17c-2.94,0-5.76,0.39-8.4,1.12c-2.73,0.76-5.34,1.9-7.75,3.35   c-1.88,1.14-4.25,0.79-5.74-0.7l0,0l-20.18-20.18c-2.9-2.9-4.36-6.73-4.36-10.55C162.85,114.28,164.3,110.45,167.21,107.55z" clip-rule="evenodd"></path><path fill="#fff" d="M273.08,201.31c-1.83,1.83-4.81,1.83-6.64,0c-1.83-1.83-1.83-4.81,0-6.64l16.77-16.78l-76.58-76.58   c-1.83-1.83-1.83-4.81,0-6.64c1.83-1.83,4.81-1.83,6.64,0l79.9,79.9c1.83,1.83,1.83,4.81,0,6.64L273.08,201.31z"></path><path fill="#393d48" d="M336.24,197.56l-46.82,46.82l0,0l-0.01-0.01l-0.01,0.01c-1.62,1.62-3.73,2.42-5.85,2.42   c-2.12,0-4.25-0.81-5.86-2.42l0,0l-11.34-11.34c-1.62-1.62-2.42-3.74-2.42-5.87c0-2.12,0.81-4.25,2.42-5.86l46.82-46.82   c1.62-1.61,3.74-2.43,5.87-2.43c2.12,0,4.25,0.81,5.86,2.43l11.34,11.34l0,0c1.62,1.62,2.42,3.74,2.42,5.86   C338.67,193.81,337.86,195.94,336.24,197.56L336.24,197.56z"></path><path fill="#393d48" fill-rule="evenodd" d="M209.29,135.65c11.24,0,21.42,4.56,28.79,11.92c7.36,7.37,11.92,17.54,11.92,28.79   c0,11.24-4.56,21.42-11.92,28.79c-7.37,7.37-17.54,11.92-28.79,11.92s-21.42-4.56-28.79-11.92c-7.37-7.36-11.92-17.54-11.92-28.79   c0-11.24,4.56-21.42,11.92-28.79C187.87,140.21,198.05,135.65,209.29,135.65z" clip-rule="evenodd"></path><path fill="#252930" d="M209.29,188.9c2.59,0,4.7,2.1,4.7,4.7s-2.1,4.7-4.7,4.7c-6.05,0-11.54-2.46-15.5-6.42   c-3.97-3.97-6.42-9.45-6.42-15.5c0-6.05,2.46-11.54,6.42-15.5c3.97-3.97,9.45-6.42,15.5-6.42c2.59,0,4.7,2.1,4.7,4.7   s-2.1,4.7-4.7,4.7c-3.46,0-6.6,1.4-8.86,3.67c-2.27,2.27-3.67,5.4-3.67,8.86c0,3.46,1.4,6.6,3.67,8.86   C202.69,187.49,205.83,188.9,209.29,188.9z"></path><path fill="#5c9cee" fill-rule="evenodd" d="M218.57 293.35h190.98c2.59 0 4.7 2.1 4.7 4.7v26.74c0 2.59-2.1 4.7-4.7 4.7H218.57c-2.59 0-4.7-2.1-4.7-4.7v-26.74C213.87 295.45 215.97 293.35 218.57 293.35zM372.99 441.08H57.6c-2.59 0-4.7-2.1-4.7-4.7v-18.55c0-6.4 2.61-12.21 6.83-16.42 4.21-4.21 10.03-6.82 16.42-6.82h278.29c6.4 0 12.21 2.62 16.42 6.82 4.21 4.21 6.82 10.03 6.82 16.42v18.55C377.69 438.97 375.58 441.08 372.99 441.08z" clip-rule="evenodd"></path><path fill="#c1cfe8" d="M34.96,441.08c-2.59,0-4.7-2.1-4.7-4.7c0-2.59,2.1-4.7,4.7-4.7h360.68c2.59,0,4.7,2.1,4.7,4.7   c0,2.59-2.1,4.7-4.7,4.7H34.96z"></path><path fill="#fff" d="M352.94,409.03c2.59,0,4.7,2.1,4.7,4.7c0,2.59-2.1,4.7-4.7,4.7H82.35v4.15c0,2.59-2.1,4.7-4.7,4.7   s-4.7-2.1-4.7-4.7v-4.42c0-2.53,1.07-4.84,2.8-6.5c1.67-1.62,3.97-2.62,6.49-2.62H352.94z"></path><path fill="#98db7c" fill-rule="evenodd" d="M371.9,86.54c12.29,0,23.43,4.98,31.49,13.04c8.06,8.06,13.04,19.19,13.04,31.49s-4.98,23.43-13.04,31.49   c-8.06,8.06-19.19,13.04-31.49,13.04c-12.29,0-23.43-4.99-31.49-13.04c-8.06-8.06-13.04-19.19-13.04-31.49s4.99-23.43,13.04-31.49   C348.47,91.53,359.6,86.54,371.9,86.54z" clip-rule="evenodd"></path><path fill="#ef5350" fill-rule="evenodd" d="M301.51,52.4c4.97,0,9.49,2.02,12.78,5.3l0.01,0.01l0.01,0.01l0.02,0.02c3.26,3.28,5.28,7.79,5.28,12.75   c0,5-2.03,9.52-5.3,12.8c-0.1,0.1-0.2,0.19-0.31,0.28c-3.26,3.11-7.66,5.02-12.49,5.02c-4.98,0-9.5-2.03-12.78-5.3l-0.02-0.02   c-3.27-3.27-5.3-7.8-5.3-12.78c0-5,2.03-9.52,5.3-12.8C291.98,54.43,296.51,52.4,301.51,52.4z" clip-rule="evenodd"></path><path fill="#5c9cee" fill-rule="evenodd" d="M441.19,66.9c5.8,0,11.07,2.36,14.89,6.18l0.01-0.01c3.81,3.81,6.17,9.08,6.17,14.9   c0,5.82-2.36,11.08-6.17,14.9c-0.1,0.1-0.19,0.19-0.3,0.27c-3.79,3.65-8.94,5.9-14.6,5.9c-5.82,0-11.08-2.36-14.9-6.17   c-3.81-3.81-6.17-9.08-6.17-14.9c0-5.82,2.36-11.08,6.17-14.9C430.11,69.26,435.38,66.9,441.19,66.9z" clip-rule="evenodd"></path><path fill="#ffc107" fill-rule="evenodd" d="M411.67,179.05c6.69,0,12.75,2.72,17.15,7.11l0.02,0.02c4.39,4.39,7.11,10.46,7.11,17.15   c0,6.69-2.72,12.75-7.11,17.15l-0.02,0.02c-4.39,4.39-10.46,7.11-17.15,7.11c-6.68,0-12.75-2.72-17.15-7.11l-0.01-0.01l-0.01-0.01   l-0.01-0.01c-4.39-4.4-7.1-10.46-7.1-17.13c0-6.68,2.72-12.75,7.11-17.15l0.01-0.01l0.01-0.01l0.01-0.01   C398.93,181.76,404.99,179.05,411.67,179.05z" clip-rule="evenodd"></path></svg>