<svg xmlns="http://www.w3.org/2000/svg" viewBox="0 0 608.35 502.95" id="seo"><g><g><polygon fill="#131519" points="261.87 395.26 246.98 473.75 398.66 473.75 383.52 395.26 261.87 395.26"></polygon><path fill="#2d303b" d="M153,452.13H490.87a21,21,0,0,1,21,21v18.17a11.61,11.61,0,0,1-11.61,11.61H143.58A11.61,11.61,0,0,1,132,491.34V473.17A21,21,0,0,1,153,452.13Z"></path><rect width="572.83" height="409.86" x="35.52" fill="#c4e2f2" rx="51.46"></rect><path fill="#3c3f4d" d="M556.89,409.86H87A51.46,51.46,0,0,1,35.52,358.4v-8.52H608.35v8.52A51.46,51.46,0,0,1,556.89,409.86Z"></path><rect width="10.64" height="41.66" x="71.84" y="265.87" fill="#e1533b" transform="rotate(45 77.159 286.69)"></rect><circle cx="142.3" cy="221.55" r="80.21" fill="#8c9ffa"></circle><circle cx="142.3" cy="221.55" r="65.14" fill="#5f6fe7"></circle><path fill="#ee6a51" d="M28.2,279.87H50.77a5.45,5.45,0,0,1,5.45,5.45v74.34A9.19,9.19,0,0,1,47,368.85H31.94a9.19,9.19,0,0,1-9.19-9.19V285.32a5.45,5.45,0,0,1,5.45-5.45Z" transform="rotate(45 39.487 324.356)"></path><rect width="16.36" height="285.84" x="351.54" y="147.21" fill="#44394a" rx="7.6" transform="rotate(90 359.72 290.14)"></rect><path fill="#f4b601" d="M444.24,100.11h14.5a11.16,11.16,0,0,1,11.16,11.16V282a0,0,0,0,1,0,0H433.08a0,0,0,0,1,0,0V111.27A11.16,11.16,0,0,1,444.24,100.11Z"></path><path fill="#f0a696" d="M382.86,150.14h14.5a11.16,11.16,0,0,1,11.16,11.16V282a0,0,0,0,1,0,0H371.7a0,0,0,0,1,0,0V161.31A11.16,11.16,0,0,1,382.86,150.14Z"></path><path fill="#e08c7e" d="M262.24,181.61h11.41a12.71,12.71,0,0,1,12.71,12.71V282a0,0,0,0,1,0,0H249.53a0,0,0,0,1,0,0V194.32A12.71,12.71,0,0,1,262.24,181.61Z"></path><path fill="#f09d00" d="M322,136.11h14.5a11.16,11.16,0,0,1,11.16,11.16V282a0,0,0,0,1,0,0H310.8a0,0,0,0,1,0,0V147.28A11.16,11.16,0,0,1,322,136.11Z"></path><path fill="#3c3f4d" d="M123.05 80.69c-1.64-2.73-6.16-5.33-11.35-5.33-6.7 0-9.92 2.8-9.92 6.36 0 4.17 4.93 5.33 10.67 6 10 1.24 19.28 3.83 19.28 15.25 0 10.67-9.43 15.25-20.1 15.25-9.78 0-17.3-3-20.85-11.76l7.52-3.9c2.12 5.27 7.65 7.59 13.47 7.59s11-2 11-7.18c0-4.51-4.71-6.36-11.07-7-9.78-1.16-18.8-3.76-18.8-14.5 0-9.84 9.7-13.88 18.52-13.94 7.46 0 15.18 2.12 18.81 9.5zM174.4 117H138.57V69.14H174.4v8.75H147.52v11h25.92v8.41H147.52v10.8H174.4zM228.41 93.34c-.14 12.38-7.73 24.75-24.55 24.75S179.25 106 179.25 93.41s8.07-25.23 24.61-25.23S228.55 80.83 228.41 93.34zm-40.27.21c.2 7.86 4.44 16.27 15.72 16.27s15.52-8.48 15.66-16.34c.14-8.07-4.38-17.09-15.66-17.09S187.93 85.48 188.14 93.55z"></path><path fill="#4ec4a5" d="M269.4,163.6q5.66-11.43,11.58-22.72c3.72-7.08,7.34-14.28,11.59-21,1-1.58,2.05-3.1,3.13-4.61.08-.12.6-.8.08-.12.31-.4.62-.79.94-1.18.64-.77,1.31-1.52,2-2.25a41.26,41.26,0,0,1,3.68-3.44c.21-.17,1-.79.15-.14q.52-.41,1.08-.78c.72-.51,1.45-1,2.21-1.46a39.31,39.31,0,0,1,4.05-2.16c.33-.16.67-.31,1-.45-1.18.52.16-.06.35-.13.81-.32,1.64-.61,2.47-.88,1.39-.45,2.81-.84,4.24-1.17.86-.19,1.73-.37,2.6-.52l.87-.15.88-.13c-.68.09-.71.09-.09,0a72.6,72.6,0,0,1,9.89-.43c1.51,0,3,.13,4.53.26.83.07,1.66.16,2.49.25l1.13.14c-1.34-.17.61.09.84.13,7.3,1.13,14.28,3.55,21.52,4.93a42.49,42.49,0,0,0,12.82.81,38.32,38.32,0,0,0,11.4-3.17c6.69-3,12.49-7.81,17.8-12.78,6.64-6.2,13-12.75,19.4-19.15l20.82-20.69a5.32,5.32,0,0,0-7.52-7.52C425.14,55.16,413,67.31,400.79,79.35c-2.55,2.51-5.15,5-7.88,7.3-.69.57-1.38,1.14-2.08,1.69.76-.6-.07.06-.26.2l-1,.71a49.39,49.39,0,0,1-4.6,3q-1.12.63-2.28,1.2l-1.06.49c-.8.4,1.16-.41-.23.1a34.1,34.1,0,0,1-5.34,1.58l-.92.17c-1.52.27,1.22,0-.53.06-.91.05-1.82.12-2.73.12s-1.82,0-2.73-.11c-.55,0-1.09-.1-1.64-.16.91.11-1.11-.19-1.3-.22-7.38-1.3-14.47-3.82-21.88-5a81.22,81.22,0,0,0-20.83-.94,56.4,56.4,0,0,0-20.39,5.68,48.36,48.36,0,0,0-16.63,14.68c-5.17,7-9,14.92-13.09,22.57q-6.78,12.81-13.21,25.81c-1.23,2.49-.75,5.87,1.91,7.27,2.4,1.27,6,.76,7.28-1.91Z"></path><path fill="#4ec4a5" d="M418.17,52.69c8.13-.36,16.2-1.1,24.28-2l-5.13-3.9c-.2-1.26,0,.38,0,.65,0,.46,0,.92,0,1.38,0,1-.08,2-.18,3-.19,2-.47,3.92-.72,5.88L434.92,69.9c-.35,2.77,2.7,5.44,5.32,5.32,3.18-.14,4.94-2.35,5.32-5.32l1.61-12.69c.57-4.49,1.11-8.74.41-13.26A5.31,5.31,0,0,0,442.45,40c-8.08.91-16.15,1.65-24.28,2-2.77.12-5.45,2.36-5.32,5.32.13,2.78,2.35,5.45,5.32,5.32Z"></path></g></g></svg>