<?xml version="1.0" encoding="iso-8859-1"?>
<!-- Uploaded to: SVG Repo, www.svgrepo.com, Generator: SVG Repo Mixer Tools -->
<svg fill="#000000" height="800px" width="800px" version="1.1" id="Layer_1" xmlns="http://www.w3.org/2000/svg" xmlns:xlink="http://www.w3.org/1999/xlink" 
	 viewBox="0 0 512.001 512.001" xml:space="preserve">
<g>
	<g>
		<g>
			<path d="M191.46,170.665h-6.4c-5.891,0-10.667,4.777-10.667,10.667c0,5.891,4.777,10.667,10.667,10.667h6.4
				c5.89,0,10.667-4.776,10.667-10.667C202.126,175.441,197.35,170.665,191.46,170.665z"/>
			<path d="M501.33,271.202c-16.623,0-29.248-9.734-43.867-21.006c-17.471-13.472-37.273-28.741-67.325-28.741
				c-14.665,0-26.883,3.641-37.585,8.928l21.716-81.054h8.966c4.827,0,9.052-3.243,10.302-7.905l11.434-42.663
				c0.859-3.203,0.179-6.624-1.84-9.255c-2.018-2.63-5.146-4.173-8.463-4.173h-3.252l8.727-32.567
				c1.252-4.674,2.102-7.842,7.336-9.26c4.633,11.974,16.263,20.494,29.853,20.494h42.667c17.646,0,32.002-14.354,32.002-31.998
				c0-17.645-14.356-32-32.002-32h-42.667c-14.138,0-26.155,9.219-30.377,21.959c-18.844,2.844-24.594,14.743-27.417,25.282
				l-10.206,38.089H10.667c-3.316,0-6.444,1.542-8.463,4.174c-2.019,2.63-2.699,6.051-1.841,9.254l11.435,42.663
				c1.25,4.662,5.476,7.905,10.303,7.905h8.964l26.464,98.765c0.023,0.091,0.058,0.177,0.083,0.266
				c0.049,0.162,0.097,0.325,0.153,0.484c0.06,0.171,0.127,0.337,0.195,0.503c0.05,0.125,0.098,0.252,0.154,0.375
				c0.27,0.601,0.592,1.166,0.958,1.694c0.02,0.03,0.045,0.059,0.065,0.089c0.165,0.234,0.339,0.46,0.522,0.676
				c0.051,0.063,0.107,0.121,0.159,0.181c0.157,0.179,0.319,0.354,0.487,0.522c0.073,0.071,0.147,0.144,0.222,0.213
				c0.156,0.147,0.317,0.288,0.481,0.426c0.09,0.074,0.178,0.15,0.27,0.222c0.162,0.126,0.331,0.245,0.5,0.362
				c0.097,0.067,0.191,0.139,0.289,0.202c0.253,0.162,0.512,0.315,0.778,0.455c0.114,0.061,0.235,0.112,0.353,0.17
				c0.171,0.082,0.341,0.164,0.517,0.239c0.126,0.052,0.255,0.1,0.384,0.148c0.183,0.068,0.369,0.133,0.556,0.192
				c0.116,0.036,0.234,0.071,0.351,0.105c0.237,0.065,0.477,0.121,0.719,0.17c0.074,0.015,0.147,0.032,0.221,0.046
				c0.355,0.065,0.715,0.112,1.078,0.14l206.543,16.697c-3.163,1.851-5.294,5.274-5.294,9.203c0,5.765,0.065,11.35,0.183,16.79
				H84.982c-5.89,0-10.667,4.776-10.667,10.667s4.776,10.667,10.667,10.667h29.531l-5.94,22.172
				c-19.511,3.917-34.256,21.182-34.256,41.83c0,23.527,19.137,42.667,42.661,42.669c0.001,0,0.001,0,0.002,0h53.335
				c5.89,0,10.667-4.777,10.667-10.667s-4.777-10.667-10.667-10.667h-16.407c3.643-6.282,5.741-13.566,5.741-21.336
				c0-18.872-12.323-34.912-29.341-40.524l6.291-23.478h132.683c6.186,109.179,41.394,147.775,115.525,190.575
				c1.65,0.954,3.491,1.429,5.333,1.429c1.842,0,3.683-0.476,5.333-1.429c82.173-47.443,116.525-89.707,116.525-228.699
				C511.996,275.979,507.22,271.202,501.33,271.202z M437.332,21.335h42.667c5.884,0,10.669,4.785,10.669,10.667
				c0,5.881-4.785,10.665-10.669,10.665h-42.667c-5.882,0-10.667-4.784-10.667-10.665C426.665,26.12,431.45,21.335,437.332,21.335z
				 M138.314,383.995c0,11.764-9.57,21.336-21.333,21.336c-11.762,0-21.332-9.571-21.332-21.336c0-11.743,9.537-21.297,21.271-21.33
				c0.02,0,0.044,0.004,0.065,0.004c0.026,0,0.051-0.003,0.077-0.003C128.788,362.71,138.314,372.258,138.314,383.995z
				 M30.286,127.995l-5.716-21.33h352.906c0.017,0,0.031,0.003,0.048,0.003c0.025,0,0.05-0.003,0.075-0.003h3.169l-5.716,21.33
				H30.286z M76.189,235.307l-23.038-85.979h299.033l-5.716,21.336H226.656c-5.89,0-10.667,4.777-10.667,10.667
				c0,5.891,4.777,10.667,10.667,10.667H340.75l-5.714,21.331h-55.814c-5.891,0-10.667,4.776-10.667,10.667
				c0,5.89,4.775,10.667,10.667,10.667h50.098l-3.552,13.258c-0.994,0.763-1.979,1.522-2.958,2.276
				c-2.022,1.559-4.004,3.085-5.967,4.563L76.189,235.307z M390.138,488.985c-66.577-39.201-98.877-74.261-100.468-197.35
				c18.409-3.14,32.483-13.994,46.166-24.544c16.208-12.498,31.519-24.303,54.302-24.303c22.781,0,38.092,11.805,54.3,24.303
				c13.681,10.55,27.756,21.403,46.162,24.544C489.009,414.725,456.713,449.785,390.138,488.985z"/>
			<path d="M418.407,414.094c-6.867,8.099-16.153,16.156-28.269,24.511c-12.116-8.354-21.402-16.41-28.273-24.511
				c-3.808-4.491-10.542-5.045-15.036-1.236c-4.492,3.81-5.045,10.541-1.235,15.035c9.419,11.108,21.725,21.432,38.727,32.49
				c1.768,1.15,3.792,1.725,5.817,1.725c2.022,0,4.048-0.575,5.814-1.725c17.006-11.06,29.311-21.386,38.725-32.49
				c15.004-17.692,24.825-41.663,30.025-73.283c0.956-5.813-2.981-11.301-8.794-12.256c-5.823-0.963-11.3,2.981-12.256,8.794
				C439.098,378.843,430.84,399.434,418.407,414.094z"/>
			<path d="M457.013,330.407c0.247,0.017,0.492,0.025,0.736,0.025c5.561,0,10.247-4.311,10.631-9.941
				c0.151-2.221,0.169-2.671,0.212-3.708c0.017-0.455,0.042-1.038,0.087-2c0.277-5.885-4.267-10.88-10.153-11.159
				c-5.923-0.241-10.881,4.267-11.158,10.151c-0.048,1.034-0.075,1.659-0.094,2.147c-0.035,0.871-0.052,1.25-0.179,3.119
				C446.696,324.917,451.137,330.007,457.013,330.407z"/>
		</g>
	</g>
</g>
</svg>