<?xml version="1.0" encoding="iso-8859-1"?>
<!-- Uploaded to: SVG Repo, www.svgrepo.com, Generator: SVG Repo Mixer Tools -->
<svg fill="#000000" height="800px" width="800px" version="1.1" id="Layer_1" xmlns="http://www.w3.org/2000/svg" xmlns:xlink="http://www.w3.org/1999/xlink" 
	 viewBox="0 0 296.999 296.999" xml:space="preserve">
<g>
	<g>
		<g>
			<path d="M206.939,104.986c-23.993,0-43.513,19.52-43.513,43.513s19.52,43.513,43.513,43.513c23.993,0,43.513-19.52,43.513-43.513
				S230.931,104.986,206.939,104.986z"/>
			<path d="M206.939,58.439H90.061C40.401,58.439,0,98.839,0,148.499c0,49.66,40.401,90.061,90.061,90.061h116.877
				c49.66,0,90.061-40.401,90.061-90.061C296.999,98.839,256.599,58.439,206.939,58.439z M206.939,205.167
				c-31.247,0-56.668-25.421-56.668-56.668s25.421-56.668,56.668-56.668c31.247,0,56.668,25.421,56.668,56.668
				S238.186,205.167,206.939,205.167z"/>
		</g>
	</g>
</g>
</svg>